<?xml version="1.0"?>
<svg xmlns="http://www.w3.org/2000/svg" xmlns:xlink="http://www.w3.org/1999/xlink" version="1.1" id="Capa_1" x="0px" y="0px" viewBox="0 0 512 512" style="enable-background:new 0 0 512 512;" xml:space="preserve" width="512px" height="512px" class=""><g><path style="fill:#FFFFFF" d="M255.467,199.213c27.627-58.613,2.507-128.533-56.107-156.16S70.827,40.546,43.2,99.159  c-7.424,15.744-11.243,32.939-11.2,50.347c0.021,17.195,3.84,34.165,11.2,49.707C16.885,211.447,0.032,237.815,0,266.839v192  c0,11.787,9.547,21.333,21.333,21.333h256c11.787,0,21.333-9.547,21.333-21.333v-192  C298.635,237.815,281.781,211.447,255.467,199.213z M149.333,74.839c41.237,0,74.667,33.429,74.667,74.667  s-33.429,74.667-74.667,74.667s-74.667-33.429-74.667-74.667S108.096,74.839,149.333,74.839z M256,437.506H42.667V266.839  c-0.192-15.883,11.296-29.515,26.987-32c44.864,41.984,114.603,41.984,159.467,0c15.648,2.539,27.083,16.149,26.88,32V437.506z" data-original="#0000FF" class="" data-old_color="#ffffFF"/><g>
	<rect x="309.333" y="128.215" style="fill:#FFFFFF" width="202.667" height="42.667" data-original="#CCCCFF" class="active-path" data-old_color="#ffffFF"/>
	<rect x="341.333" y="234.882" style="fill:#FFFFFF" width="170.667" height="42.667" data-original="#CCCCFF" class="active-path" data-old_color="#ffffFF"/>
	<rect x="341.333" y="341.549" style="fill:#FFFFFF" width="170.667" height="42.667" data-original="#CCCCFF" class="active-path" data-old_color="#ffffFF"/>
</g></g> </svg>
