<?xml version="1.0"?>
<svg xmlns="http://www.w3.org/2000/svg" height="512px" viewBox="0 0 512 512" width="512px" class=""><g><path d="m404 148c0-81.605469-66.394531-148-148-148s-148 66.394531-148 148c0 50.546875 25.480469 95.25 64.261719 121.960938-36.210938 12.496093-69.398438 33.136718-97.28125 61.019531-48.351563 48.351562-74.980469 112.640625-74.980469 181.019531h40c0-119.101562 96.898438-216 216-216 81.605469 0 148-66.394531 148-148zm-148 108c-59.550781 0-108-48.449219-108-108s48.449219-108 108-108 108 48.449219 108 108-48.449219 108-108 108zm18 76v180h238v-180zm165.730469 40-46.230469 34.386719-46.230469-34.386719zm-125.730469 100v-74.894531l79.5 59.132812 78.5-58.386719v74.148438zm0 0" data-original="#000000" class="active-path" data-old_color="#ffffff" fill="#ffffff"/></g> </svg>
