<?xml version="1.0"?>
<svg xmlns="http://www.w3.org/2000/svg" height="512px" viewBox="0 0 512.00008 512" width="512px"><g><path d="m506.183594 452.359375c-.011719.011719-.023438.027344-.039063.042969l-53.738281 53.738281c-7.8125 7.8125-20.476562 7.808594-28.285156 0-7.8125-7.808594-7.8125-20.472656 0-28.285156l19.597656-19.597657h-29.714844c-121.359375 0-140.8125-126.96875-158-152.496093-17.65625 26.214843-36.5 152.5-158.003906 152.5h-78c-11.046875 0-20-8.957031-20-20 0-11.046875 8.953125-20 20-20h78c95.574219 0 102.554688-105.875 136.160156-162.261719-33.691406-56.53125-40.578125-162.261719-136.160156-162.261719h-78c-11.046875 0-20-8.953125-20-20 0-11.042969 8.953125-20 20-20h78c121.359375 0 140.8125 126.96875 158.003906 152.5 17.648438-26.214843 36.496094-152.496093 158-152.496093h29.714844l-19.597656-19.597657c-7.8125-7.8125-7.8125-20.476562 0-28.285156 7.8125-7.8125 20.472656-7.8125 28.285156 0l53.738281 53.738281c.015625.015625.027344.027344.039063.042969 7.605468 7.648437 7.917968 20.214844-.039063 28.242187l-53.738281 53.738282c-7.8125 7.8125-20.476562 7.8125-28.285156 0-7.8125-7.808594-7.8125-20.472656 0-28.28125l19.597656-19.601563h-29.714844c-95.574218 0-102.554687 105.875-136.160156 162.261719 33.691406 56.53125 40.578125 162.261719 136.160156 162.261719h29.714844l-19.597656-19.601563c-7.8125-7.808594-7.8125-20.472656 0-28.285156 7.8125-7.808594 20.472656-7.808594 28.285156 0l53.738281 53.742188c.015625.015624.027344.027343.039063.042968 7.667968 7.710938 7.828125 20.328125 0 28.199219zm0 0" data-original="#000000" class="active-path" data-old_color="#ffffff" fill="#ffffff"/></g> </svg>
